<svg xmlns="http://www.w3.org/2000/svg" xmlns:xlink="http://www.w3.org/1999/xlink" version="1.1" x="0px" y="0px" viewBox="0 0 100 100" enable-background="new 0 0 100 100" xml:space="preserve"><path d="M68.75,0H58.333c-4.167,0-4.167,0-4.167,4.167v91.667c0,4.167,0,4.167,4.167,4.167H68.75c4.167,0,4.167,0,4.167-4.167V4.167  C72.917,0,72.917,0,68.75,0z M41.667,0H31.25c-4.167,0-4.167,0-4.167,4.167v91.667c0,4.167,0,4.167,4.167,4.167h10.417  c4.167,0,4.167,0,4.167-4.167V4.167C45.833,0,45.833,0,41.667,0z M14.583,0H4.167C0,0,0,0,0,4.167v91.667C0,100,0,100,4.167,100  h10.417c4.167,0,4.167,0,4.167-4.167V4.167C18.75,0,18.75,0,14.583,0z M95.833,0H85.417C81.25,0,81.25,0,81.25,4.167v91.667  c0,4.167,0,4.167,4.167,4.167h10.417C100,100,100,100,100,95.833V4.167C100,0,100,0,95.833,0z"></path></svg>